<svg width="121" height="22" viewBox="0 0 121 22" fill="none" xmlns="http://www.w3.org/2000/svg">
<path d="M2.49432 0.636363V21H0.147727V0.636363H2.49432ZM10.7389 11.8125V21H8.39226V5.72727H10.6593V8.11364H10.8582C11.2161 7.33807 11.7597 6.71496 12.4889 6.24432C13.218 5.76705 14.1593 5.52841 15.3127 5.52841C16.3468 5.52841 17.2516 5.74053 18.0272 6.16477C18.8028 6.58239 19.406 7.21875 19.8369 8.07386C20.2677 8.92235 20.4832 9.99621 20.4832 11.2955V21H18.1366V11.4545C18.1366 10.2547 17.825 9.32008 17.2019 8.65057C16.5788 7.97443 15.7237 7.63636 14.6366 7.63636C13.8875 7.63636 13.218 7.79877 12.6281 8.12358C12.0447 8.44839 11.584 8.92235 11.246 9.54545C10.9079 10.1686 10.7389 10.9242 10.7389 11.8125ZM32.5757 21.3182C31.1439 21.3182 29.9109 20.9801 28.8768 20.304C27.8428 19.6278 27.0473 18.6965 26.4905 17.5099C25.9337 16.3234 25.6553 14.9678 25.6553 13.4432C25.6553 11.892 25.9403 10.5232 26.5104 9.33665C27.0871 8.14347 27.8892 7.21212 28.9166 6.54261C29.9507 5.86648 31.1572 5.52841 32.5359 5.52841C33.6098 5.52841 34.5776 5.72727 35.4393 6.125C36.3011 6.52273 37.0071 7.07955 37.5572 7.79545C38.1074 8.51136 38.4488 9.34659 38.5814 10.3011H36.2348C36.0558 9.60511 35.6581 8.98864 35.0416 8.4517C34.4318 7.90814 33.6098 7.63636 32.5757 7.63636C31.6609 7.63636 30.8589 7.875 30.1695 8.35227C29.4867 8.82292 28.9531 9.48911 28.5686 10.3509C28.1908 11.206 28.0018 12.2102 28.0018 13.3636C28.0018 14.5436 28.1875 15.571 28.5587 16.446C28.9365 17.321 29.4668 18.0005 30.1496 18.4844C30.839 18.9683 31.6477 19.2102 32.5757 19.2102C33.1856 19.2102 33.7391 19.1042 34.2362 18.892C34.7334 18.6799 35.1543 18.375 35.499 17.9773C35.8437 17.5795 36.089 17.1023 36.2348 16.5455H38.5814C38.4488 17.447 38.1207 18.259 37.597 18.9815C37.08 19.6974 36.3939 20.2675 35.5388 20.6918C34.6903 21.1094 33.7026 21.3182 32.5757 21.3182ZM43.93 21V0.636363H46.2766V8.15341H46.4754C46.6478 7.88826 46.8864 7.55019 47.1913 7.1392C47.5029 6.72159 47.947 6.35038 48.5237 6.02557C49.1071 5.69413 49.8959 5.52841 50.8902 5.52841C52.1762 5.52841 53.3097 5.84991 54.2908 6.4929C55.2718 7.13589 56.0375 8.04735 56.5876 9.22727C57.1378 10.4072 57.4129 11.7992 57.4129 13.4034C57.4129 15.0208 57.1378 16.4228 56.5876 17.6094C56.0375 18.7893 55.2751 19.7041 54.3007 20.3537C53.3263 20.9967 52.2027 21.3182 50.93 21.3182C49.9489 21.3182 49.1634 21.1558 48.5734 20.831C47.9835 20.4995 47.5294 20.125 47.2112 19.7074C46.893 19.2831 46.6478 18.9318 46.4754 18.6534H46.197V21H43.93ZM46.2368 13.3636C46.2368 14.517 46.4058 15.5346 46.7439 16.4162C47.082 17.2912 47.5758 17.9773 48.2254 18.4744C48.875 18.965 49.6705 19.2102 50.6118 19.2102C51.5928 19.2102 52.4115 18.9517 53.0678 18.4347C53.7306 17.911 54.2278 17.2083 54.5592 16.3267C54.8973 15.4384 55.0663 14.4508 55.0663 13.3636C55.0663 12.2898 54.9006 11.322 54.5692 10.4602C54.2444 9.59186 53.7505 8.90578 53.0876 8.40199C52.4314 7.89157 51.6061 7.63636 50.6118 7.63636C49.6572 7.63636 48.8552 7.87831 48.2055 8.36222C47.5559 8.83949 47.0654 9.509 46.7339 10.3707C46.4025 11.2259 46.2368 12.2235 46.2368 13.3636ZM64.949 0.636363V21H62.6024V0.636363H64.949ZM70.8469 21V5.72727H73.114V8.03409H73.2731C73.5515 7.27841 74.0553 6.66525 74.7844 6.1946C75.5136 5.72396 76.3356 5.48864 77.2504 5.48864C77.4227 5.48864 77.6381 5.49195 77.8967 5.49858C78.1552 5.50521 78.3507 5.51515 78.4833 5.52841V7.91477C78.4038 7.89489 78.2215 7.86506 77.9364 7.82528C77.658 7.77888 77.363 7.75568 77.0515 7.75568C76.3091 7.75568 75.6462 7.91146 75.0629 8.22301C74.4862 8.52794 74.0288 8.95218 73.6907 9.49574C73.3593 10.0327 73.1935 10.6458 73.1935 11.3352V21H70.8469ZM82.8649 21V5.72727H85.132V8.11364H85.3308C85.649 7.2983 86.1627 6.66525 86.872 6.21449C87.5813 5.7571 88.4331 5.52841 89.4274 5.52841C90.435 5.52841 91.2735 5.7571 91.943 6.21449C92.6192 6.66525 93.1462 7.2983 93.524 8.11364H93.6831C94.0742 7.32481 94.6608 6.69839 95.443 6.23438C96.2252 5.76373 97.1632 5.52841 98.257 5.52841C99.6225 5.52841 100.739 5.95597 101.608 6.81108C102.476 7.65956 102.91 8.98201 102.91 10.7784V21H100.564V10.7784C100.564 9.65151 100.256 8.84612 99.6391 8.36222C99.0226 7.87831 98.2967 7.63636 97.4615 7.63636C96.3876 7.63636 95.5557 7.96117 94.9658 8.6108C94.3758 9.25379 94.0808 10.0691 94.0808 11.0568V21H91.6945V10.5398C91.6945 9.6714 91.4127 8.97206 90.8493 8.44176C90.2858 7.90483 89.56 7.63636 88.6717 7.63636C88.0619 7.63636 87.4918 7.79877 86.9615 8.12358C86.4378 8.44839 86.0136 8.89915 85.6888 9.47585C85.3706 10.0459 85.2115 10.7055 85.2115 11.4545V21H82.8649ZM111.147 11.8125V21H108.801V5.72727H111.068V8.11364H111.267C111.625 7.33807 112.168 6.71496 112.897 6.24432C113.627 5.76705 114.568 5.52841 115.721 5.52841C116.755 5.52841 117.66 5.74053 118.436 6.16477C119.211 6.58239 119.815 7.21875 120.245 8.07386C120.676 8.92235 120.892 9.99621 120.892 11.2955V21H118.545V11.4545C118.545 10.2547 118.234 9.32008 117.611 8.65057C116.987 7.97443 116.132 7.63636 115.045 7.63636C114.296 7.63636 113.627 7.79877 113.037 8.12358C112.453 8.44839 111.993 8.92235 111.655 9.54545C111.316 10.1686 111.147 10.9242 111.147 11.8125Z" fill="#25282F"/>
</svg>
