<svg width="32" height="32" viewBox="0 0 32 32" fill="none" xmlns="http://www.w3.org/2000/svg">
<path fill-rule="evenodd" clip-rule="evenodd" d="M5.04484 15H11.0382C11.2507 11.4684 12.2738 8.07095 13.9977 5.18181C9.19865 6.06439 5.48986 10.0616 5.04484 15ZM16 5.7456C14.2996 8.40529 13.265 11.6191 13.0422 15H18.9578C18.735 11.6191 17.7004 8.40529 16 5.7456ZM18.9578 17C18.735 20.3809 17.7004 23.5947 16 26.2544C14.2996 23.5947 13.265 20.3809 13.0422 17H18.9578ZM11.0382 17H5.04484C5.48986 21.9384 9.19865 25.9356 13.9977 26.8182C12.2738 23.929 11.2507 20.5316 11.0382 17ZM18.0023 26.8182C19.7262 23.929 20.7493 20.5316 20.9618 17H26.9552C26.5101 21.9384 22.8014 25.9356 18.0023 26.8182ZM26.9552 15H20.9618C20.7493 11.4684 19.7262 8.07095 18.0023 5.18181C22.8013 6.06439 26.5101 10.0616 26.9552 15ZM3 16C3 8.8203 8.8203 3 16 3C23.1797 3 29 8.8203 29 16C29 23.1797 23.1797 29 16 29C8.8203 29 3 23.1797 3 16Z" fill="#A8A9AC"/>
</svg>
