<svg width="28" height="28" viewBox="0 0 28 28" fill="none" xmlns="http://www.w3.org/2000/svg">
<path fill-rule="evenodd" clip-rule="evenodd" d="M4.41424 13.125H9.65844C9.84437 10.0348 10.7396 7.06208 12.248 4.53408C8.04882 5.30634 4.80363 8.80393 4.41424 13.125ZM14 5.0274C12.5122 7.35463 11.6068 10.1667 11.4119 13.125H16.5881C16.3932 10.1667 15.4878 7.35463 14 5.0274ZM16.5881 14.875C16.3932 17.8333 15.4878 20.6454 14 22.9726C12.5122 20.6454 11.6068 17.8333 11.4119 14.875H16.5881ZM9.65844 14.875H4.41424C4.80363 19.1961 8.04882 22.6937 12.248 23.4659C10.7395 20.9379 9.84437 17.9652 9.65844 14.875ZM15.752 23.4659C17.2605 20.9379 18.1556 17.9652 18.3416 14.875H23.5858C23.1964 19.1961 19.9512 22.6937 15.752 23.4659ZM23.5858 13.125H18.3416C18.1556 10.0348 17.2604 7.06208 15.752 4.53408C19.9512 5.30634 23.1964 8.80393 23.5858 13.125ZM2.625 14C2.625 7.71776 7.71776 2.625 14 2.625C20.2822 2.625 25.375 7.71776 25.375 14C25.375 20.2822 20.2822 25.375 14 25.375C7.71776 25.375 2.625 20.2822 2.625 14Z" fill="#A8A9AC"/>
</svg>
