<svg width="28" height="28" viewBox="0 0 28 28" fill="none" xmlns="http://www.w3.org/2000/svg">
<path d="M13.9999 2.33301C7.55409 2.33301 2.33325 7.55384 2.33325 13.9997C2.33193 16.4488 3.10187 18.8362 4.53384 20.8231C5.96581 22.81 7.98709 24.2956 10.3109 25.069C10.8943 25.1705 11.1124 24.8205 11.1124 24.5137C11.1124 24.2372 11.0973 23.319 11.0973 22.3413C8.16659 22.8815 7.40825 21.6273 7.17492 20.9705C7.04309 20.6345 6.47492 19.5997 5.97909 19.322C5.57075 19.1038 4.98742 18.5637 5.96392 18.5497C6.88325 18.5345 7.53892 19.3955 7.75825 19.7455C8.80825 21.5095 10.4859 21.0137 11.1556 20.708C11.2583 19.9497 11.5639 19.4398 11.8999 19.1482C9.30409 18.8565 6.59159 17.8497 6.59159 13.3872C6.59159 12.1178 7.04309 11.069 7.78742 10.2512C7.67075 9.95951 7.26242 8.76368 7.90409 7.15951C7.90409 7.15951 8.88059 6.85384 11.1124 8.35651C12.0622 8.09291 13.0434 7.96024 14.0291 7.96217C15.0208 7.96217 16.0124 8.09284 16.9458 8.35534C19.1764 6.83868 20.1541 7.16067 20.1541 7.16067C20.7958 8.76484 20.3874 9.96068 20.2708 10.2523C21.0139 11.069 21.4666 12.1038 21.4666 13.3872C21.4666 17.8648 18.7401 18.8565 16.1443 19.1482C16.5666 19.5122 16.9318 20.2122 16.9318 21.3065C16.9318 22.8663 16.9166 24.1205 16.9166 24.5148C16.9166 24.8205 17.1359 25.1845 17.7193 25.0678C20.0351 24.2859 22.0475 22.7975 23.4731 20.812C24.8988 18.8265 25.6659 16.444 25.6666 13.9997C25.6666 7.55384 20.4458 2.33301 13.9999 2.33301Z" fill="#A8A9AC"/>
</svg>
