<svg width="32" height="32" viewBox="0 0 32 32" fill="none" xmlns="http://www.w3.org/2000/svg">
<path d="M15.9998 2.66602C8.63317 2.66602 2.66651 8.63268 2.66651 15.9993C2.66499 18.7984 3.54492 21.5268 5.18146 23.7976C6.818 26.0683 9.12803 27.7661 11.7838 28.65C12.4505 28.766 12.6998 28.366 12.6998 28.0153C12.6998 27.6993 12.6825 26.65 12.6825 25.5327C9.33317 26.15 8.46651 24.7167 8.19984 23.966C8.04917 23.582 7.39984 22.3993 6.83317 22.082C6.36651 21.8327 5.69984 21.2153 6.81584 21.1993C7.86651 21.182 8.61584 22.166 8.86651 22.566C10.0665 24.582 11.9838 24.0153 12.7492 23.666C12.8665 22.7993 13.2158 22.2167 13.5998 21.8833C10.6332 21.55 7.53317 20.3994 7.53317 15.2993C7.53317 13.8487 8.04917 12.65 8.89984 11.7153C8.76651 11.382 8.29984 10.0153 9.03317 8.18202C9.03317 8.18202 10.1492 7.83268 12.6998 9.55002C13.7853 9.24876 14.9067 9.09714 16.0332 9.09935C17.1665 9.09935 18.2998 9.24868 19.3665 9.54868C21.9158 7.81535 23.0332 8.18335 23.0332 8.18335C23.7665 10.0167 23.2998 11.3833 23.1665 11.7167C24.0158 12.65 24.5332 13.8327 24.5332 15.2993C24.5332 20.4167 21.4172 21.55 18.4505 21.8833C18.9332 22.2993 19.3505 23.0994 19.3505 24.35C19.3505 26.1327 19.3332 27.566 19.3332 28.0167C19.3332 28.366 19.5838 28.782 20.2505 28.6487C22.8972 27.7551 25.1971 26.054 26.8264 23.7849C28.4557 21.5158 29.3324 18.7928 29.3332 15.9993C29.3332 8.63268 23.3665 2.66602 15.9998 2.66602Z" fill="#A8A9AC"/>
</svg>
