<svg width="60" height="60" viewBox="0 0 60 60" fill="none" xmlns="http://www.w3.org/2000/svg">
<path d="M55 30C55 43.807 43.807 55 30 55C16.1929 55 5 43.807 5 30C5 16.1929 16.1929 5 30 5C43.807 5 55 16.1929 55 30Z" fill="#ADB5BD"/>
<path d="M22.1676 18.6377C23.6131 18.6377 24.9085 18.8559 26.054 19.2922C27.2267 19.7013 28.3313 20.3559 29.3676 21.2559L26.8313 24.6922C26.1222 24.1468 25.4267 23.7513 24.7449 23.5059C24.0903 23.2604 23.3676 23.1377 22.5767 23.1377C19.4949 23.1377 17.954 25.5104 17.954 30.256C17.954 32.656 18.3494 34.374 19.1403 35.4105C19.9313 36.4467 21.0631 36.965 22.5358 36.965C23.2994 36.965 23.9949 36.856 24.6222 36.6377C25.2494 36.3922 25.9858 35.9968 26.8313 35.4513L29.3676 39.0922C27.2949 40.7832 24.9222 41.6285 22.2494 41.6285C20.1222 41.6285 18.2676 41.165 16.6858 40.2378C15.1313 39.3105 13.9313 38.0012 13.0858 36.3105C12.2403 34.5922 11.8176 32.5877 11.8176 30.2967C11.8176 28.0059 12.2403 25.9877 13.0858 24.2422C13.9313 22.4695 15.1313 21.0922 16.6858 20.1104C18.2676 19.1286 20.0949 18.6377 22.1676 18.6377Z" fill="white"/>
<path d="M43.8305 41.015C42.9577 43.7695 41.5805 45.8968 39.6987 47.3968C37.8442 48.8968 35.3215 49.756 32.1305 49.974L31.517 45.8012C33.5898 45.5285 35.1032 45.0377 36.0577 44.3285C37.0397 43.6195 37.8443 42.5012 38.4715 40.974L37.5355 43.247L29.7169 19.2922H35.8942L40.2305 37.2105L44.8125 19.2922H50.826L43.8305 41.015Z" fill="white"/>
</svg>
