<svg width="60" height="60" viewBox="0 0 60 60" fill="none" xmlns="http://www.w3.org/2000/svg">
<path d="M36.12 40.6C34.7813 42.5035 33.3225 44.3197 31.7525 46.0375C35.9325 50.095 39.8225 51.995 41.9775 50.7475C44.1375 49.5025 44.435 45.185 43.0125 39.5375C40.88 40.0125 38.5625 40.3725 36.12 40.6ZM32.845 40.8175C30.9491 40.8959 29.0508 40.8959 27.155 40.8175C28.0975 42.0475 29.05 43.1875 30 44.2275C30.95 43.1875 31.9 42.0475 32.845 40.8175ZM45.445 21.0825C52.1075 22.9925 56.4575 26.1675 56.4575 30C56.4575 33.8325 52.1075 37.0075 45.445 38.9175C47.12 45.6425 46.5475 50.9975 43.23 52.9125C39.91 54.83 34.985 52.65 30 47.8375C25.015 52.65 20.09 54.83 16.77 52.9125C13.4525 50.9975 12.8775 45.6425 14.555 38.9175C7.89248 37.0075 3.54248 33.8325 3.54248 30C3.54248 26.1675 7.89248 22.9925 14.555 21.0825C12.88 14.3575 13.4525 9.00246 16.77 7.08746C20.09 5.16996 25.015 7.34996 30 12.1625C34.985 7.34996 39.91 5.16996 43.23 7.08746C46.5475 9.00246 47.1225 14.3575 45.445 21.0825ZM43.0125 20.4625C44.4375 14.8125 44.1375 10.4975 41.98 9.25246C39.8225 8.00496 35.9325 9.90496 31.755 13.9625C33.2325 15.57 34.7025 17.3975 36.12 19.4C38.565 19.625 40.88 19.985 43.0125 20.4625ZM16.9875 39.5375C15.5625 45.1875 15.8625 49.5025 18.02 50.7475C20.1775 51.995 24.0675 50.095 28.245 46.0375C26.6758 44.3197 25.2178 42.5035 23.88 40.6C21.5622 40.3928 19.26 40.0379 16.9875 39.5375ZM27.155 19.1825C29.0508 19.104 30.9491 19.104 32.845 19.1825C31.9462 18.0061 30.997 16.8692 30 15.775C29.05 16.815 28.1 17.955 27.155 19.185V19.1825ZM23.88 19.4C25.2195 17.4963 26.6791 15.6801 28.25 13.9625C24.0675 9.90496 20.175 8.00496 18.0225 9.25246C15.8625 10.4975 15.565 14.815 16.9875 20.4625C19.12 19.9875 21.4375 19.6275 23.88 19.4ZM34.735 38.2C36.5146 35.5884 38.0965 32.8474 39.4675 30C38.0965 27.1525 36.5146 24.4116 34.735 21.8C31.5827 21.564 28.4172 21.564 25.265 21.8C23.4854 24.4116 21.9035 27.1525 20.5325 30C21.9035 32.8474 23.4854 35.5884 25.265 38.2C28.4172 38.436 31.5827 38.436 34.735 38.2ZM37.945 37.8725C39.4825 37.6725 40.945 37.415 42.32 37.1125C41.8703 35.7019 41.3599 34.3114 40.79 32.945C39.91 34.6252 38.9608 36.2682 37.945 37.87V37.8725ZM22.055 22.125C20.5175 22.325 19.055 22.5825 17.68 22.885C18.105 24.225 18.615 25.62 19.21 27.0525C20.09 25.3723 21.0391 23.7292 22.055 22.1275V22.125ZM17.68 37.11C19.055 37.4125 20.5175 37.6675 22.055 37.87C21.0391 36.2682 20.09 34.6252 19.21 32.945C18.615 34.375 18.105 35.77 17.68 37.11ZM15.235 36.4975C15.8875 34.4125 16.735 32.2275 17.76 29.9975C16.735 27.7675 15.8875 25.5825 15.235 23.4975C9.62998 25.09 6.04248 27.5075 6.04248 29.9975C6.04248 32.4875 9.62998 34.905 15.235 36.4975ZM42.32 22.885C40.945 22.5825 39.4825 22.3275 37.945 22.125C38.9608 23.7267 39.91 25.3698 40.79 27.05C41.385 25.62 41.895 24.225 42.32 22.885ZM44.765 23.4975C44.1125 25.5825 43.265 27.7675 42.24 29.9975C43.265 32.2275 44.1125 34.4125 44.765 36.4975C50.37 34.905 53.9575 32.4875 53.9575 29.9975C53.9575 27.5075 50.37 25.09 44.765 23.4975ZM30 34.7C29.3828 34.7 28.7716 34.5784 28.2014 34.3422C27.6311 34.106 27.113 33.7598 26.6766 33.3234C26.2401 32.8869 25.8939 32.3688 25.6577 31.7986C25.4215 31.2283 25.3 30.6172 25.3 30C25.3 29.3827 25.4215 28.7716 25.6577 28.2013C25.8939 27.6311 26.2401 27.113 26.6766 26.6766C27.113 26.2401 27.6311 25.8939 28.2014 25.6577C28.7716 25.4215 29.3828 25.3 30 25.3C31.2465 25.3 32.442 25.7951 33.3234 26.6766C34.2048 27.558 34.7 28.7534 34.7 30C34.7 31.2465 34.2048 32.4419 33.3234 33.3234C32.442 34.2048 31.2465 34.7 30 34.7Z" fill="#61DAFB"/>
</svg>
