<svg width="60" height="60" viewBox="0 0 60 60" fill="none" xmlns="http://www.w3.org/2000/svg">
<path fill-rule="evenodd" clip-rule="evenodd" d="M30 56C44.3594 56 56 44.3594 56 30C56 15.6406 44.3594 4 30 4C15.6406 4 4 15.6406 4 30C4 44.3594 15.6406 56 30 56ZM25.7963 18.6649C24.5873 18.2216 23.2272 18 21.716 18C19.5728 18 17.6906 18.5126 16.0695 19.5377C14.4483 20.5351 13.1981 21.9342 12.3189 23.7351C11.4396 25.5359 11 27.6 11 29.9273C11 32.2545 11.4396 34.2909 12.3189 36.0364C13.1981 37.7541 14.4483 39.0978 16.0695 40.0675C17.6906 41.0095 19.614 41.4805 21.8396 41.4805C24.5873 41.4805 27.0465 40.6078 29.2171 38.8623L26.3733 34.7896C25.5215 35.316 24.7934 35.7039 24.1889 35.9532C23.5844 36.1749 22.9112 36.2857 22.1693 36.2857C20.768 36.2857 19.6964 35.8009 18.9545 34.8312C18.2127 33.8615 17.8417 32.213 17.8417 29.8857C17.8417 27.4753 18.2127 25.7299 18.9545 24.6494C19.6964 23.5688 20.7955 23.0286 22.2518 23.0286C23.6531 23.0286 25.0406 23.555 26.4145 24.6078L29.2171 20.7013C28.1455 19.787 27.0052 19.1082 25.7963 18.6649ZM39.707 47.3818C41.7128 45.858 43.1554 43.6693 44.0346 40.8156L51 18.7065H44.2819L39.9955 36.5766L36.0801 18.7065H29.1559L36.7523 42.8387C36.4408 43.2977 36.0821 43.6762 35.6267 43.974C34.6376 44.639 33.0989 45.11 31.0106 45.387L31.7113 50C35.0635 49.8061 37.7287 48.9333 39.707 47.3818Z" fill="#25272F"/>
</svg>
