<svg width="60" height="60" viewBox="0 0 60 60" fill="none" xmlns="http://www.w3.org/2000/svg">
<path fill-rule="evenodd" clip-rule="evenodd" d="M21.9982 8.06424C18.4708 8.06424 15.6112 10.8806 15.6112 14.3547C15.6112 17.8289 18.4708 20.6452 21.9982 20.6452H28.5914V8.06424H21.9982ZM31.7027 8.06424V20.6452H38.2959C41.8234 20.6452 44.6829 17.8289 44.6829 14.3547C44.6829 10.8806 41.8234 8.06424 38.2959 8.06424H31.7027ZM16.7877 22.1775C14.205 20.5054 12.5 17.6262 12.5 14.3547C12.5 9.18825 16.7525 5 21.9982 5H38.2959C43.5416 5 47.7941 9.18825 47.7941 14.3547C47.7941 17.6262 46.0891 20.5054 43.5065 22.1775C46.0891 23.8495 47.7941 26.7287 47.7941 30.0002C47.7941 35.1667 43.5416 39.3549 38.2959 39.3549H38.0896C35.6304 39.3549 33.3895 38.4345 31.7027 36.9242V45.5437C31.7027 50.779 27.3391 55 22.0494 55C16.8168 55 12.5 50.8245 12.5 45.6453C12.5 42.3739 14.2049 39.4948 16.7873 37.8227C14.2049 36.1507 12.5 33.2715 12.5 30.0002C12.5 26.7287 14.205 23.8495 16.7877 22.1775ZM28.5914 23.7097H21.9982C18.4708 23.7097 15.6112 26.526 15.6112 30.0002C15.6112 33.4611 18.449 36.2693 21.9579 36.2906C21.9713 36.2905 21.9848 36.2905 21.9982 36.2905H28.5914V23.7097ZM31.7027 30.0002C31.7027 33.4744 34.5622 36.2907 38.0896 36.2907H38.2959C41.8234 36.2907 44.6829 33.4744 44.6829 30.0002C44.6829 26.526 41.8234 23.7097 38.2959 23.7097H38.0896C34.5622 23.7097 31.7027 26.526 31.7027 30.0002ZM21.958 39.3549C18.449 39.3762 15.6112 42.1843 15.6112 45.6453C15.6112 49.1066 18.509 51.9358 22.0494 51.9358C25.6469 51.9358 28.5914 49.0611 28.5914 45.5437V39.3549H21.9982C21.9848 39.3549 21.9714 39.3549 21.958 39.3549Z" fill="black"/>
</svg>
