<svg width="60" height="60" viewBox="0 0 60 60" fill="none" xmlns="http://www.w3.org/2000/svg">
<path d="M13.6958 37.6524L18.623 5.96154C18.6979 5.47863 19.0716 5.0979 19.5511 5.01609C20.0305 4.93428 20.5083 5.16972 20.7376 5.60074L26.0352 15.5441L13.6958 37.6524ZM48.6842 45.3429L43.9944 16.1776C43.9236 15.7587 43.6261 15.4146 43.2233 15.2854C42.8206 15.1563 42.3797 15.2637 42.0806 15.564L12.5 45.3429L28.8677 54.5675C29.8955 55.1442 31.1474 55.1442 32.1752 54.5675L48.6842 45.3429ZM35.3837 19.8907L31.5928 12.6378C31.3973 12.2643 31.012 12.0305 30.5921 12.0305C30.1722 12.0305 29.7869 12.2643 29.5914 12.6378L12.9466 42.4678L35.3837 19.8907Z" fill="#ADB5BD"/>
</svg>
