<svg width="60" height="60" viewBox="0 0 60 60" fill="none" xmlns="http://www.w3.org/2000/svg">
<path d="M30 5C16.1875 5 5 16.1875 5 30C4.99717 35.2482 6.64704 40.364 9.71554 44.6217C12.784 48.8794 17.1154 52.0627 22.095 53.72C23.345 53.9375 23.8125 53.1875 23.8125 52.53C23.8125 51.9375 23.78 49.97 23.78 47.875C17.5 49.0325 15.875 46.345 15.375 44.9375C15.0925 44.2175 13.875 42 12.8125 41.405C11.9375 40.9375 10.6875 39.78 12.78 39.75C14.75 39.7175 16.155 41.5625 16.625 42.3125C18.875 46.0925 22.47 45.03 23.905 44.375C24.125 42.75 24.78 41.6575 25.5 41.0325C19.9375 40.4075 14.125 38.25 14.125 28.6875C14.125 25.9675 15.0925 23.72 16.6875 21.9675C16.4375 21.3425 15.5625 18.78 16.9375 15.3425C16.9375 15.3425 19.03 14.6875 23.8125 17.9075C25.8477 17.3427 27.9504 17.0584 30.0625 17.0625C32.1875 17.0625 34.3125 17.3425 36.3125 17.905C41.0925 14.655 43.1875 15.345 43.1875 15.345C44.5625 18.7825 43.6875 21.345 43.4375 21.97C45.03 23.72 46 25.9375 46 28.6875C46 38.2825 40.1575 40.4075 34.595 41.0325C35.5 41.8125 36.2825 43.3125 36.2825 45.6575C36.2825 49 36.25 51.6875 36.25 52.5325C36.25 53.1875 36.72 53.9675 37.97 53.7175C42.9326 52.042 47.2448 48.8525 50.2998 44.5979C53.3547 40.3433 54.9986 35.2378 55 30C55 16.1875 43.8125 5 30 5Z" fill="#ADB5BD"/>
</svg>
