<svg width="60" height="60" viewBox="0 0 60 60" fill="none" xmlns="http://www.w3.org/2000/svg">
<path d="M36.75 45C35.5 45 34.4792 44.6042 33.6875 43.8125C32.8958 43.0208 32.5 42 32.5 40.75V35H38.5V39H51.5V32.375H36.75C35.5833 32.375 34.5833 31.9583 33.75 31.125C32.9167 30.2917 32.5 29.2917 32.5 28.125V19.25C32.5 18 32.8958 16.9792 33.6875 16.1875C34.4792 15.3958 35.5 15 36.75 15H53.25C54.5 15 55.5208 15.3958 56.3125 16.1875C57.1042 16.9792 57.5 18 57.5 19.25V25H51.5V21H38.5V27.625H53.25C54.4167 27.625 55.4167 28.0417 56.25 28.875C57.0833 29.7083 57.5 30.7083 57.5 31.875V40.75C57.5 42 57.1042 43.0208 56.3125 43.8125C55.5208 44.6042 54.5 45 53.25 45H36.75ZM6.75 45C5.5 45 4.47917 44.6042 3.6875 43.8125C2.89583 43.0208 2.5 42 2.5 40.75V32.5H8.5V39H19V15H25V40.75C25 42 24.6042 43.0208 23.8125 43.8125C23.0208 44.6042 22 45 20.75 45H6.75Z" fill="#ADB5BD"/>
</svg>
